<svg height="36" viewBox="0 0 31 36" width="31" xmlns="http://www.w3.org/2000/svg"><g fill="#ef3934"><path d="m27.904 1.973c.622 0 1.128.51 1.128 1.136v29.78c0 .628-.506 1.137-1.128 1.137h-24.808c-.622 0-1.128-.51-1.128-1.136v-29.78c0-.628.506-1.137 1.128-1.137zm-24.822-1.973a3.09 3.09 0 0 0 -3.082 3.096v29.808a3.09 3.09 0 0 0 3.082 3.096h24.836a3.09 3.09 0 0 0 3.082-3.096v-29.808a3.09 3.09 0 0 0 -3.082-3.096z"/><path d="m11.072 9.493h8.856a.986.986 0 0 0 0-1.972h-8.856a.986.986 0 0 0 0 1.973zm0 6.165h8.856a.986.986 0 0 0 0-1.973h-8.856a.986.986 0 0 0 0 1.973zm.123 6.41h5.903a.985.985 0 0 0 0-1.972h-5.903a.985.985 0 0 0 0 1.972zm-.123 6.412h8.856a.986.986 0 0 0 0-1.973h-8.856a.986.986 0 0 0 0 1.972z"/><path d="m10.087 27.493c0 .544.44.986.984.986a.986.986 0 0 0  .986-.987v-12.822a.986.986 0 0 0 -.985-.985.986.986 0 0 0 -.983.986v12.823z"/></g></svg>